
            <svg viewBox="0 0 160 160" width="160" height="160" xmlns="http://www.w3.org/2000/svg" xmlns:xlink="http://www.w3.org/2000/xlink" >
                <defs>
                    <clipPath id="hexagon-clip-2205794796" transform="scale(0.5) translate(0, 16)">
                        <path d="M251.6 17.34l63.53 110.03c5.72 9.9 5.72 22.1 0 32L251.6 269.4c-5.7 9.9-16.27 16-27.7 16H96.83c-11.43 0-22-6.1-27.7-16L5.6 159.37c-5.7-9.9-5.7-22.1 0-32L69.14 17.34c5.72-9.9 16.28-16 27.7-16H223.9c11.43 0 22 6.1 27.7 16z"/>
                    </clipPath>
                </defs>
                <path fill="white" stroke="#bbbbbb" transform="translate(0, 8) scale(0.5)" d="M251.6 17.34l63.53 110.03c5.72 9.9 5.72 22.1 0 32L251.6 269.4c-5.7 9.9-16.27 16-27.7 16H96.83c-11.43 0-22-6.1-27.7-16L5.6 159.37c-5.7-9.9-5.7-22.1 0-32L69.14 17.34c5.72-9.9 16.28-16 27.7-16H223.9c11.43 0 22 6.1 27.7 16z"/>
                <g transform="scale(0.9) translate(9, 8)">
                    <g clip-path="url(#hexagon-clip-2205794796)">
                        
            <g color="#d32f2f" fill="#009688">
                <rect fill="#fb8c00" x="0" y="0" width="160" height="160"></rect>
                <circle cx="80" cy="80" r="40" fill="#d32f2f"></circle>
                <g opacity=".1" fill="#010101"><path d="M119.21,80a39.46,39.46,0,0,1-67.13,28.13c10.36,2.33,36,3,49.82-14.28,10.39-12.47,8.31-33.23,4.16-43.26A39.35,39.35,0,0,1,119.21,80Z"/></g>
                <path d="M45 55l-6-18.8s4 8.9 11 6.8 8-17.1 8-17.1 3 12.4 11 12.2S79.5 24 79.5 24 83 37 88 37c10.1 0 13-12.1 13-12.1s3 16 8 16c3.1-.1 6-1.4 8-3.8l-6 15c0 .1-49-5.6-66 2.9z" id="path6" fill="#ffe000"></path><g id="g10" opacity=".05"><path d="M45 55c30-2.7 51.9-8.9 56-30.1 0 0 3 16 8 16 3.1-.1 6-1.4 8-3.8l-6 15c0 .1-49-5.6-66 2.9z" id="path8"></path></g><path d="M44.5 62.2C56 54.8 69.4 50.9 83 51c23 0 27.2 3.9 27.2 3.9l3.2 4.4s3.1 3.2 5.1-.8-3-12-18-15-42 0-54 7-7 15-5 15H43l1.5-3.3z" id="path12" fill="#c69757"></path><g id="g16" opacity=".1"><path d="M44.5 62.7C56 55.3 69.4 51.4 83 51.5c23 0 27.2 3.9 27.2 3.9l3.2 4.4s3.1 3.2 5.1-.8C109 37 39 49 39.4 63.9c.6 1.3 1.5 2.1 2.1 2.1H43l1.5-3.3z" id="path14"></path></g><circle cx="101.7" cy="22.2" r="6.8" id="circle18"></circle><g id="g22" fill="#010101" opacity=".25"><path d="M108.5 23c-.4 3.8-3.8 6.4-7.6 6-1.8-.2-3.4-1.1-4.6-2.5 1.7.6 6.1 1.3 8.9-1.4 2-1.9 2.1-5.6 1.6-7.4 1.3 1.4 1.9 3.4 1.7 5.3z" id="path20"></path></g><circle cx="100.7" cy="39.2" r="2.5" id="circle33"></circle><g id="g37" opacity=".05"><path d="M103.1 39.5c-.2 1.4-1.4 2.3-2.7 2.2-.6-.1-1.2-.4-1.6-.9 1.1.4 2.3.2 3.2-.5.6-.7.8-1.7.6-2.7.4.5.6 1.2.5 1.9z" id="path35"></path></g><circle cx="60.7" cy="40.2" r="2.5" id="circle48"></circle><g id="g52" opacity=".05"><path d="M63.1 40.5c-.2 1.4-1.4 2.3-2.7 2.2-.6-.1-1.2-.4-1.6-.9 1.1.4 2.3.2 3.2-.5.6-.7.8-1.7.6-2.7.4.5.6 1.2.5 1.9z" id="path50"></path></g>
                <path d="M139.5 61.5l-7.4 13.3-12.8 7.7s-.6 4.6-1 5.9c-1.1 4 20.1 2.3 22.3-1.7l-2.8-4.7 11.2-9.6c1.4-2.5.9-3.7-1.9-3.4l-10.9 8.1 6.8-13.4c.6-2.8-2-3.3-3.5-2.2z" fill="url(#side_15a)"></path><path d="M139.5 61.5l-7.4 13.3-12.8 7.7s-.6 4.6-1 5.9c-1.1 4 20.1 2.3 22.3-1.7l-2.8-4.7 11.2-9.6c1.4-2.5.9-3.7-1.9-3.4l-10.9 8.1 6.8-13.4c.6-2.8-2-3.3-3.5-2.2z" fill="currentColor"></path><path d="M119.4 82.4l6.3-9.8c.8-.9 1.8-1 3.1-.4 0 0 3.3 2.4 1.8 1.4s6.4 5.1 6.4 5.1-.6 2.8-4.4 2L129 80s.6 3.1-3.4 3.7-6.2-1.3-6.2-1.3z" fill="currentColor"></path><path d="M119.4 82.4l6.3-9.8c.8-.9 1.8-1 3.1-.4 0 0 3.3 2.4 1.8 1.4s6.4 5.1 6.4 5.1-.6 2.8-4.4 2L129 80s.6 3.1-3.4 3.7-6.2-1.3-6.2-1.3z" fill="#010101" opacity=".1"></path><path d="M25.8 63.7L34 77.3l14.6 7.6s.6 4.8 1 6.1c1.2 4.1-21.6 3-24-1l1.6-5.1-12.7-9.6c-1.6-2.5-.9-3.8 2.3-3.5l12.4 8.1-7.5-13.7c-.6-3 2.3-3.6 4.1-2.5z" fill="currentColor"></path><path d="M48.4 84.8l-7.1-9.9c-.9-.9-2.1-1-3.6-.3 0 0-3.9 2.6-2.1 1.5S28 81.6 28 81.6s.6 2.9 5 2l4.4-.9s-.8 3.2 3.8 3.8 7.2-1.7 7.2-1.7z" fill="url(#side_15b)"></path><path d="M48.4 84.8l-7.1-9.9c-.9-.9-2.1-1-3.6-.3 0 0-3.9 2.6-2.1 1.5S28 81.6 28 81.6s.6 2.9 5 2l4.4-.9s-.8 3.2 3.8 3.8 7.2-1.7 7.2-1.7z" fill="currentColor"></path><path d="M48.4 84.8l-7.1-9.9c-.9-.9-2.1-1-3.6-.3 0 0-3.9 2.6-2.1 1.5S28 81.6 28 81.6s.6 2.9 5 2l4.4-.9s-.8 3.2 3.8 3.8 7.2-1.7 7.2-1.7z" fill="#010101" opacity=".1"></path><path d="M48.4 84.8l-7.1-9.9c-.9-.9-2.1-1-3.6-.3 0 0-3.9 2.6-2.1 1.5S28 81.6 28 81.6c2.3-1.3 13.5-7.2 20.4 3.2z" fill="#010101" opacity=".1"></path><path d="M22 64.1c1.3 0 2.5.8 3 1.9 1 2 6.9 12.9 6.9 12.9l2.1-1.6L26 64c-1.1-1.1-2.9-1.1-4 .1 0-.1 0 0 0 0zM149.047 69.108c.2 1.3-1.247 1.992-2.247 2.692C145 73.1 136 80 136 80l1.9 1.8 11.1-9.4c.63-1.052 1.347-2.392.048-3.292zM141.26 60.938s.54.862-.66 2.762c-1.2 1.9-7.2 11.7-7.2 11.7l2.5 1.9 6.91-13.33c.1.2 1.087-2.693-1.55-3.032zM13.725 72.87c1.063-.45 2.001.252 3.02 1.132 1.727 1.365 10.757 7.684 10.757 7.684l2.273-1.346L16.8 71.8c-1.302-.15-2.794-.001-3.075 1.07zM139.5 84.9S125 91 118 88l.4 1.1s3.3 2.5 12.5 1.2c0 0 8.1-1.3 9.1-3.3l-.5-2.1zM26.254 88.228s16.36 6.034 23.184 2.654c0 0 .383.92-.148 1.184-3.163 1.572-6.003 1.813-13.883 1.14 0 0-7.98-.725-9.807-3.206z" fill="#010101" opacity=".1"></path>
                <path d="M76 77s0-12 6-12 6 11.6 6 11.6S83 65 76 77z" id="path37" fill="#010101" opacity=".6"></path><path d="M100 76.5s0-11 5.5-11 5.5 10.6 5.5 10.6-4.6-10.6-11 .4z" id="path46" fill="#010101" opacity=".6"></path><path d="M75 91.1c-.2-1.5.4-2.9 1.4-3.9 0 0 10.8 0 13-4.6s4.3-10.1 7.9-7.8c5.7 3.3 5 7.8 8.6 10.1s7.2 5.7 12.2 5.7 5.8.5 5.8 2.1-2.2 4.7-6.5 3.1-10.4-4.3-19.8-.4-5 4.7-10.8 2.3c-4.1-1.8-8-4-11.8-6.6z" id="path50" opacity=".2"></path><path d="M77.8 92.6l-.6 2.9 2.2 3.6s6.5 0 8.7 2.2 13.7 5 20.9 2.9 6.7-8.6 6.7-8.6-12.7 5.4-22.1 2.1c-.9.7-2 1.2-3.1 1.5-2.2-.7-4.4-1.5-6.6-2.5-2.3-1-4.3-2.4-6.1-4.1z" id="path52" opacity=".2"></path><path d="M116.3 94.5s-5.8-2.2-10.1-1.4-9 1.8-11.3 3.4c0 0 2.4 1.7 7.2 1.3s12.1-1.8 14.2-3.3z" id="path54" fill="#eb5273"></path><g id="g58" opacity=".2"><path d="M116.3 94.5s-5.8-2.2-10.1-1.4c-3.4.5-6.7 1.3-9.9 2.6 4.2 1.7 13.6-1.2 20-1.2z" id="path56"></path></g><path d="M76 90.9l1.4-3.6s10.8 0 13-4.3 4.3-9.4 7.9-7.2 5 7.2 8.6 9.4 7.2 4.3 12.2 4.3 5.7 1.4 5.7 2.9-2.2 4.3-6.5 2.9-10.4-4-19.8-.4-5 4.3-10.8 2.2c-4-1.7-7.9-3.8-11.7-6.2z" id="path60" fill="#fbdb31"></path><g id="g64" opacity=".05"><path d="M76 90.9l1.4-3.6c4.6 3.2 9.7 5.7 15.1 7.2 4.3-5 21.6-5 32.4-2.2.1 1.4-2.2 4.3-6.5 2.9s-10.4-4-19.8-.4-5 4.3-10.8 2.2c-4.1-1.6-8-3.7-11.8-6.1z" id="path62"></path></g><path d="M91.8 83l-.7 2.2 5.1 4.3c.4.4 1 .4 1.4 0 .7-.7-2.2-3.6-2.2-3.6L93.3 83c-.4-.4-1-.4-1.5 0 .1 0 .1 0 0 0z" id="path66"></path><path d="M78.8 92.6l-.6 1.9 2.2 3.6s6.5 0 8.7 2.2 13.7 5 20.9 2.9 6.7-8.6 6.7-8.6-12.7 5.4-22.1 2.1c-.9.7-2 1.2-3.1 1.5-2.2-.7-4.4-1.5-6.6-2.5-3.5-1.5-6.1-3.1-6.1-3.1z" id="path68" fill="#fbdb31"></path><g id="g72" opacity=".2"><path d="M78.8 92.6l-.6 1.9 2.2 3.6s6.5 0 8.7 2.2 13.7 5 20.9 2.9 6.7-8.6 6.7-8.6-12.7 5.4-22.1 2.1c-.9.7-2 1.2-3.1 1.5-2.2-.7-4.4-1.5-6.6-2.5-3.5-1.5-6.1-3.1-6.1-3.1z" id="path70"></path></g>
                <path d="M101.625 127.793c.623-6.898-.75-8.87-.75-8.87s-1.623-10.246-6.443-12.834c-3.136-1.78-5.667-1.826-7.928-1.113-2.138.025-4.184.675-6.023 1.87-.116.08-.33.144-.446.225a34.105 34.105 0 0 1-13.184-2.967 15.605 15.605 0 0 0-9.95-1.169c-4.704.175-10.045 2.776-11.133 12.842-1.838 16.534 6.556 24.13 6.556 24.13 3.75 4.023 10.655 6.882 16.214 5.336 2.433.029 4.729-.881 6.62-2.372 0 0 4.133-6.067 10.022-7.757l.313-.046c2.71.18 5.474.064 8.111-.48 4.507-.21 7.517-1.704 8.02-6.795z" fill="#fd9727"></path><g opacity=".8"><path d="M82.035 106.108c-.214.063-.33.144-.562.305.133-.179.348-.242.562-.305zM82.812 105.739l-.545.207zM62.501 145.485l-1.28-.229 1.28.229zM81.258 106.477l-.777.369zM51.673 104.337l-.348.243zM83.572 105.468l-.43.127zM64.39 145.72l-.609-.006zM53.227 103.6l-.33.143zM52.468 103.87l-.33.144zM63.387 145.643l-.59-.105zM59.879 144.813l-.573-.204zM55.58 142.724l-.36-.268zM54.764 142.171l-.359-.267zM60.845 145.087l-.573-.204zM56.77 143.445l-.456-.285zM58.831 144.422l-.573-.204zM69.428 143.675c-1.08.925-2.42 1.6-3.805 1.961.922-.038 1.86-.175 2.718-.428 2.433.029 4.73-.882 6.62-2.372 0 0 4.035-6.085 10.022-7.758-.92.039-1.86.176-2.816.411-7.334.111-12.74 8.186-12.74 8.186zM53.966 141.52l-.26-.249zM53.07 140.853l-.26-.25zM49.816 105.63l-.25.26zM101.625 127.793c.623-6.898-.75-8.87-.75-8.87s-1.623-10.246-6.443-12.834c-3.136-1.78-5.667-1.826-7.928-1.113-.921.039-1.86.176-2.718.429 1.807.12 3.544.633 5.112 1.523 4.82 2.589 6.442 12.834 6.442 12.834s1.374 1.973.75 8.87c-.408 3.99-2.335 5.678-5.32 6.465.921-.038 1.86-.175 2.817-.41 4.524-.31 7.534-1.803 8.038-6.894zM87.908 135.195l-.805-.042zM47.19 109.53l-.036.196.035-.197zM89.125 135.21l-.707-.025zM46.665 110.756c-.017.099-.053.296-.169.376.116-.08.134-.179.17-.376zM46.32 112.117l-.087.492c-.081-.116.052-.295.087-.492zM57.9 143.951l-.475-.186zM90.26 135.108l-.724.073zM45.853 114.166l.087-.492-.087.492zM50.53 105.047l.348-.242-.348.242zM66.752 104.087a15.605 15.605 0 0 0-9.95-1.17c-.92.04-1.86.176-2.815.412 2.45-.07 4.992.486 7.133 1.58 3.055 1.663 12.301 3.925 16 2.555a5.949 5.949 0 0 0 3.263-.636c-.116.08-.33.144-.447.225a34.105 34.105 0 0 1-13.184-2.966zM48.515 107.227c-.116.08-.151.277-.267.358.134-.179.151-.277.267-.358zM47.847 108.123c-.018.099-.134.18-.169.376.116-.08.134-.179.17-.376zM65.409 145.7l-.51.01zM49.183 106.33l-.267.359zM86.594 135.163l-1.315-.032zM64.9 145.71l-.51.01zM90.672 135.08l-.411.028zM58.356 144.236l-.474-.187zM86.987 135.233l-.411.029zM65.606 145.735l-.215.063zM88.32 135.167l-.51.01zM61.32 145.274l-.394-.07zM89.635 135.199l-.51.01zM63.897 145.633l-.394-.07zM59.306 144.609l-.475-.187zM60.255 144.982l-.376-.17zM50.53 105.047a4.35 4.35 0 0 0-.714.584c.232-.162.482-.422.714-.584zM48.266 107.487c-.134.18-.285.457-.419.636.134-.18.267-.358.419-.636zM47.056 109.709c-.152.277-.32.653-.39 1.047.168-.376.32-.654.39-1.047z"></path><path d="M47.678 108.5c-.169.375-.32.653-.489 1.03.17-.377.32-.655.49-1.03zM48.916 106.689l-.4.538.4-.538zM49.665 105.908c-.134.18-.267.359-.5.52.152-.277.286-.456.5-.52zM46.577 111.248c-.052.296-.204.573-.274.967.07-.394.123-.689.274-.967zM83.572 105.468l.214-.063zM53.227 103.6l.76-.271zM46.134 112.591l-.176.985.176-.985zM50.878 104.805l.464-.324zM45.652 115.858c.105-.591.095-1.1.2-1.692-.087.493-.193 1.083-.2 1.692zM83.027 105.675l-.33.144zM52.12 104.112l-.447.225zM54.405 141.904l-.44-.383zM56.215 143.142l-.653-.32zM52.908 140.62c-.26-.249-.422-.481-.682-.73.144.33.421.481.682.73zM55.301 142.572l-.537-.4zM53.607 141.254l-.538-.401zM81.473 106.413l-.215.064zM84.966 135.177l.411-.028zM52.897 103.743l-.43.127zM57.425 143.765l-.654-.32zM82.267 105.946l-.232.162z"></path></g><circle cx="100.626" cy="105.117" r="5.7" transform="rotate(10.135)" fill="#33221f"></circle><path d="M113.016 114.084l-28.174 3.66a5.7 5.7 0 0 1 1.074 4.442 5.7 5.7 0 0 1-.453 1.408l28.338-3.682c.411-.028.698-.485.67-.896l-.559-4.264c-.028-.411-.485-.696-.896-.668z" fill="#543933"></path><path d="M68.413 115.253l2.585 15.09-3.558.584-.291-1.78c-.94.138-1.934-.548-2.07-1.487l.017-.098c-.292-1.78-1.535-7.894-1.535-7.894.123-.689.738-1.29 1.382-1.48l-.186-2.37z"></path><path d="M118.971 110.882l6.867-.906c2.7-.33 5.112 1.523 5.54 4.24l.12 1.038c.33 2.7-1.524 5.112-4.242 5.54l-6.866.906c-2.7.33-5.112-1.523-5.54-4.241l-.12-1.037c-.33-2.7 1.524-5.112 4.241-5.54z" fill="#fd9727"></path><path d="M118.971 110.882l6.867-.906c2.7-.33 5.112 1.523 5.54 4.24l.12 1.038c.33 2.7-1.524 5.112-4.242 5.54l-6.866.906c-2.7.33-5.112-1.523-5.54-4.241l-.12-1.037c-.33-2.7 1.524-5.112 4.241-5.54z" opacity=".2"></path><path d="M116.62 110.97s-.587-1.833.96-1.963c1.547-.13 1.328 1.66 1.328 1.66zM120.21 121.566s.489 1.815-.96 1.962c-1.448.147-1.328-1.66-1.328-1.66zM124.342 121.187s.488 1.815-.96 1.962c-1.449.147-1.33-1.66-1.33-1.66zM127.882 120.703s.489 1.814-.96 1.962c-1.448.147-1.329-1.66-1.329-1.66zM120.768 110.492s-.587-1.832.96-1.962c1.547-.13 1.329 1.66 1.329 1.66zM124.9 110.113s-.588-1.832.96-1.962c1.546-.13 1.328 1.66 1.328 1.66z" fill="#543933"></path><path d="M118.085 110.723l6.867-.906c2.7-.33 5.112 1.524 5.54 4.241l.12 1.038c.33 2.7-1.524 5.111-4.241 5.54l-6.867.906c-2.7.33-5.112-1.524-5.54-4.241l-.12-1.038c-.33-2.7 1.622-5.094 4.241-5.54z" fill="#fd9727"></path><path d="M117.512 113.364l8.53-1.117c.312-.046.573.204.618.517.046.313-.204.573-.517.619l-8.53 1.116c-.312.046-.572-.204-.618-.517-.046-.313.204-.573.517-.618zM118.58 117.618l8.53-1.117c.312-.045.573.204.618.517.046.313-.204.573-.517.619l-8.53 1.117c-.312.045-.572-.205-.618-.517-.063-.215.204-.573.517-.62z"></path>
            </g>
                    </g>
                </g>
            </svg>